# xmcd CD database file
#
# Track frame offsets:
#	150
#	16926
#	31540
#	43337
#	55500
#	68358
#	82523
#	101617
#	110035
#	121994
#	135425
#	150953
#	162669
#
# Disc length: 2356 seconds
#
# Revision: 0
# Processed by: cddbd v1.5.2PL0 Copyright (c) Steve Scherf et al.
# Submitted via: CDex 1.51
#
DISCID=8e09320d
DTITLE=Bassey, Shirley - The Bewitching Miss Bassey
DYEAR=1900
DGENRE=Blues
TTITLE0=Burn My Candle
TTITLE1=Night and Day
TTITLE2=Crazy Rythhm
TTITLE3=The Wall
TTITLE4=The Banna Boat Song
TTITLE5=The Gypsy in My Soul
TTITLE6=Love For Sale
TTITLE7=From This Moment On
TTITLE8=Kiss Me, Honey, Kiss Me
TTITLE9=You, You Romeo
TTITLE10=My Funny Valentine
TTITLE11=How About You
TTITLE12=As I Love You
EXTD=
EXTT0=
EXTT1=
EXTT2=
EXTT3=
EXTT4=
EXTT5=
EXTT6=
EXTT7=
EXTT8=
EXTT9=
EXTT10=
EXTT11=
EXTT12=
PLAYORDER=
